<?xml version="1.0" standalone="no"?>
<!DOCTYPE svg PUBLIC "-//W3C//DTD SVG 20010904//EN"
 "http://www.w3.org/TR/2001/REC-SVG-20010904/DTD/svg10.dtd">
<svg version="1.0" xmlns="http://www.w3.org/2000/svg"
 width="751.000000pt" height="392.000000pt" viewBox="0 0 751.000000 392.000000"
 preserveAspectRatio="xMidYMid meet">

<g transform="translate(0.000000,392.000000) scale(0.100000,-0.100000)"
fill="#000000" stroke="none">
<path d="M0 1960 l0 -1960 3755 0 3755 0 0 1960 0 1960 -3755 0 -3755 0 0
-1960z m1770 1025 l0 -55 -280 -405 c-154 -222 -280 -407 -280 -410 0 -3 272
-5 605 -5 l605 0 0 -60 0 -60 -150 0 -150 0 0 -465 0 -465 -70 0 -70 0 0 465
0 465 -470 0 -470 0 0 56 c0 63 -18 34 403 641 l157 228 -265 3 -265 2 0 60 0
60 350 0 350 0 0 -55z m130 -105 c15 -29 3 -59 -26 -66 -49 -13 -85 26 -58 64
20 29 69 30 84 2z m409 -183 c48 -32 74 -85 79 -164 l4 -63 -156 0 c-155 0
-156 0 -156 -22 0 -44 20 -94 47 -120 62 -58 183 -27 183 47 0 23 4 25 40 25
37 0 40 -2 40 -29 0 -41 -39 -93 -90 -119 -37 -19 -56 -23 -108 -19 -126 9
-192 92 -192 242 0 127 35 199 114 236 56 27 143 20 195 -14z m411 -7 c0 -38
-1 -40 -32 -40 -18 0 -45 -8 -61 -18 -54 -36 -56 -44 -57 -224 l0 -168 -40 0
-40 0 0 240 0 240 40 0 c39 0 40 -1 40 -36 l0 -37 22 28 c23 30 70 54 106 55
19 0 22 -5 22 -40z m317 25 c76 -32 112 -93 113 -187 l0 -58 -156 0 -157 0 7
-41 c14 -87 57 -132 126 -132 51 0 87 25 98 66 7 29 12 32 50 35 42 3 43 3 36
-25 -16 -66 -46 -102 -107 -128 -108 -45 -232 11 -272 124 -33 95 -8 256 48
309 53 50 145 66 214 37z m451 -22 c-3 -36 -5 -38 -47 -45 -27 -5 -55 -18 -73
-35 l-28 -27 0 -173 0 -173 -40 0 -40 0 0 240 0 240 35 0 c35 0 41 -8 35 -50
-1 -11 5 -9 22 7 33 31 79 53 111 53 26 0 28 -2 25 -37z m-1588 -213 l0 -240
-40 0 -40 0 0 240 0 240 40 0 40 0 0 -240z m1460 -827 l0 -106 23 21 c31 29
89 52 132 52 61 0 103 -24 125 -72 17 -38 20 -66 20 -230 l0 -188 -40 0 -40 0
0 178 c0 122 -4 185 -13 202 -26 52 -112 51 -172 -2 l-35 -30 0 -175 0 -174
-40 3 c-22 2 -40 6 -40 11 0 4 0 144 0 312 l0 305 40 0 40 0 0 -107z m1581
-145 c1 -139 4 -264 8 -278 5 -19 15 -26 41 -30 31 -4 35 -9 38 -37 3 -33 3
-33 -40 -33 -60 0 -104 29 -117 77 -6 22 -11 146 -11 296 l0 257 40 0 40 0 1
-252z m1089 127 c0 -27 -4 -35 -19 -35 -10 0 -31 -5 -48 -10 l-30 -11 24 -47
c42 -80 23 -162 -51 -216 -22 -17 -44 -21 -108 -22 -59 -1 -84 -6 -96 -18 -29
-29 0 -40 121 -46 129 -7 166 -23 193 -78 30 -65 -2 -143 -73 -178 -53 -26
-223 -27 -270 -1 -72 39 -90 123 -39 176 27 28 28 32 14 48 -8 10 -18 26 -21
36 -8 22 16 72 38 80 12 5 11 12 -10 43 -19 28 -25 50 -25 93 0 110 69 167
192 159 58 -5 70 -3 85 15 22 24 69 46 101 47 19 0 22 -5 22 -35z m-3502 -31
c77 -32 122 -108 122 -206 l0 -38 -165 0 -166 0 7 -37 c16 -95 54 -134 129
-135 56 -1 96 25 109 71 8 28 13 31 47 31 46 0 49 -12 20 -76 -49 -107 -231
-127 -322 -35 -90 90 -92 293 -4 384 54 56 147 73 223 41z m548 -14 c35 -23
73 -85 74 -122 0 -14 -8 -18 -38 -18 -34 0 -39 3 -51 35 -18 51 -50 69 -113
63 -40 -4 -57 -12 -74 -32 -62 -71 -58 -234 7 -299 27 -27 34 -29 84 -25 64 5
92 26 101 74 6 32 9 34 45 34 35 0 39 -3 39 -25 0 -41 -36 -101 -75 -125 -19
-12 -59 -24 -88 -27 -147 -15 -241 80 -239 243 1 41 7 93 14 116 15 51 74 113
120 127 53 17 151 7 194 -19z m1041 13 c63 -29 73 -68 73 -285 l0 -188 -40 0
-40 0 0 170 c0 191 -10 235 -54 246 -42 10 -94 -5 -131 -38 l-35 -30 0 -174 0
-174 -40 0 -40 0 0 241 0 240 37 -3 c33 -3 39 -7 43 -32 5 -27 6 -28 20 -11
22 27 90 55 133 55 22 0 55 -8 74 -17z m478 6 c55 -15 120 -82 135 -139 18
-67 15 -171 -8 -222 -72 -163 -302 -172 -385 -14 -31 60 -32 213 0 271 51 97
147 135 258 104z m800 -8 c88 -41 127 -113 126 -233 -1 -94 -21 -148 -74 -195
-80 -70 -210 -70 -285 0 -90 84 -95 290 -9 383 57 62 163 81 242 45z m805
-178 c36 -101 67 -183 71 -183 3 0 33 82 66 183 l61 182 42 3 c40 3 41 2 35
-20 -29 -92 -199 -547 -215 -573 -24 -39 -58 -55 -115 -55 -45 0 -45 0 -45 35
0 33 2 35 33 35 36 0 55 15 80 66 16 30 14 35 -67 250 -113 297 -106 266 -54
262 l43 -3 65 -182z"/>
<path d="M2161 2657 c-40 -14 -68 -49 -77 -94 l-6 -33 116 0 c130 0 132 2 102
75 -22 51 -76 72 -135 52z"/>
<path d="M2920 2657 c-35 -12 -63 -49 -75 -99 l-7 -28 116 0 116 0 0 25 c0 42
-29 85 -65 101 -40 16 -40 16 -85 1z"/>
<path d="M5774 1549 c-48 -13 -69 -43 -69 -101 0 -65 34 -98 101 -98 64 0 94
31 94 98 0 78 -52 120 -126 101z"/>
<path d="M5718 1145 c-30 -17 -44 -52 -33 -84 21 -68 219 -68 255 -1 15 29 5
67 -21 81 -37 19 -170 22 -201 4z"/>
<path d="M2415 1552 c-47 -16 -77 -51 -89 -104 l-6 -28 126 0 126 0 -7 33 c-8
39 -29 73 -52 85 -27 14 -76 21 -98 14z"/>
<path d="M4459 1535 c-60 -33 -83 -198 -40 -284 25 -47 51 -61 117 -61 37 0
51 6 74 28 67 68 67 236 0 304 -24 23 -37 28 -77 28 -26 -1 -60 -7 -74 -15z"/>
<path d="M5233 1532 c-34 -26 -55 -88 -55 -162 -1 -130 35 -180 129 -180 47 0
59 4 83 28 32 33 50 87 50 152 0 65 -18 119 -50 152 -24 24 -36 28 -82 28 -35
0 -61 -6 -75 -18z"/>
</g>
</svg>
